<svg xmlns="http://www.w3.org/2000/svg" version="1.1" xmlns:xlink="http://www.w3.org/1999/xlink" xmlns:svgjs="http://svgjs.dev/svgjs" width="1000" height="999" viewBox="0 0 1000 999"><g transform="matrix(1,0,0,1,-0.2157434402332683,-0.21552769679306039)"><svg viewBox="0 0 343 343" data-background-color="#ffffff" preserveAspectRatio="xMidYMid meet" height="999" width="1000" xmlns="http://www.w3.org/2000/svg" xmlns:xlink="http://www.w3.org/1999/xlink"><g id="tight-bounds" transform="matrix(1,0,0,1,0.07400000000001228,0.07400000000001228)"><svg viewBox="0 0 342.8515585177538 342.8515585177538" height="342.8515585177538" width="342.8515585177538"><g><svg></svg></g><g><svg viewBox="0 0 342.8515585177538 342.8515585177538" height="342.8515585177538" width="342.8515585177538"><g><path d="M0 171.426c0-94.676 76.75-171.426 171.426-171.426 94.676 0 171.426 76.75 171.426 171.426 0 94.676-76.75 171.426-171.426 171.426-94.676 0-171.426-76.75-171.426-171.426zM171.426 335.211c90.456 0 163.785-73.329 163.785-163.785 0-90.456-73.329-163.785-163.785-163.785-90.456 0-163.785 73.329-163.785 163.785 0 90.456 73.329 163.785 163.785 163.785z" data-fill-palette-color="tertiary" fill="#2069e0" stroke="transparent"></path><ellipse rx="164.56874808852183" ry="164.56874808852183" cx="171.4257792588769" cy="171.4257792588769" fill="#2069e0" stroke="transparent" stroke-width="0" fill-opacity="1" data-fill-palette-color="tertiary"></ellipse></g><g transform="matrix(1,0,0,1,64.84655864529836,129.061438793084)"><svg viewBox="0 0 213.15844122715708 84.72868093158584" height="84.72868093158584" width="213.15844122715708"><g><svg viewBox="0 0 213.15844122715708 84.72868093158584" height="84.72868093158584" width="213.15844122715708"><g><svg viewBox="0 0 213.15844122715714 84.72868093158586" height="84.72868093158584" width="213.15844122715708"><g><svg viewBox="0 0 213.15844122715714 84.72868093158586" height="84.72868093158586" width="213.15844122715714"><g id="textblocktransform"><svg viewBox="0 0 213.15844122715714 84.72868093158586" height="84.72868093158586" width="213.15844122715714" id="textblock"><g><svg viewBox="0 0 213.15844122715714 84.72868093158586" height="84.72868093158586" width="213.15844122715714"><g transform="matrix(1,0,0,1,0,0)"><svg width="213.15844122715714" viewBox="0.4000000059604645 -41.20000076293945 103.6500015258789 41.20000076293945" height="84.72868093158586" data-palette-color="#ffffff"><path d="M4.65-2.6L8.35-34.45 2.8-35 2.8-37.15 14.6-37.15 22.35-14.05 24.2-7.35 25.85-14.05 33.55-37.15 45.25-37.15 45.25-35 39.75-34.45 43.7-2.65 48.25-2.15 48.25 0 34.8 0 34.8-2.15 39.45-2.6 37.15-25.4 36.05-35.4 33.85-28.5 24.8-1.8 22.8-1.8 14.3-25.7 11.05-35.4 10.05-25.4 8-2.6 12.9-2.15 12.9 0 0.4 0 0.4-2.15 4.65-2.6ZM55.25-2.55L55.25-24.75 50.2-24.75 50.2-26.75 55.25-27.7 55.25-30.15Q55.25-33.15 56.8-35.68 58.35-38.2 60.82-39.7 63.3-41.2 66-41.2L66-41.2Q67.6-41.2 68.8-40.8L68.8-40.8 68.8-36.7Q68.4-37 67.17-37.3 65.95-37.6 64.35-37.6L64.35-37.6Q61.7-37.6 60.5-36.2 59.3-34.8 59.3-31.45L59.3-31.45 59.3-27.7 66.55-27.7 66.55-24.75 59.3-24.75 59.3-2.5 65-2.15 65 0 50.85 0 50.85-2.15 55.25-2.55ZM98.05 0Q97.1 0 95.67-2.08 94.25-4.15 91.7-8.6L91.7-8.6Q89.25-12.8 87.77-15.1 86.3-17.4 84.9-18.85L84.9-18.85 79.45-12.7 79.45-2.6 84.15-2.1 84.15 0 71.05 0 71.05-2.15 75.35-2.6 75.35-34.45 71.15-35 71.15-37.15 83.75-37.15 83.75-35 79.45-34.45 79.45-16.25 95.1-34.45 90.85-35 90.85-37.15 102.45-37.15 102.45-35 98.8-34.45 87.3-21.6Q89.05-20.15 90.9-17.55 92.75-14.95 95.95-10.1L95.95-10.1Q98.4-6.3 99.72-4.5 101.05-2.7 101.7-2.65L101.7-2.65 104.05-2.1 104.05 0 98.05 0Z" opacity="1" transform="matrix(1,0,0,1,0,0)" fill="#ffffff" class="undefined-text-0" data-fill-palette-color="quaternary" id="text-0"></path></svg></g></svg></g></svg></g></svg></g><g></g></svg></g></svg></g></svg></g></svg></g><defs></defs></svg><rect width="342.8515585177538" height="342.8515585177538" fill="none" stroke="none" visibility="hidden"></rect></g></svg></g></svg>