<svg xmlns="http://www.w3.org/2000/svg" version="1.1" xmlns:xlink="http://www.w3.org/1999/xlink" xmlns:svgjs="http://svgjs.dev/svgjs" width="128" height="128" viewBox="0 0 128 128"><g transform="matrix(0.8046875,0,0,0.8046875,12.760752631578946,17.758541215460248)"><svg viewBox="0 0 95 86" data-background-color="#020202" preserveAspectRatio="xMidYMid meet" height="115" width="128" xmlns="http://www.w3.org/2000/svg" xmlns:xlink="http://www.w3.org/1999/xlink"><g id="tight-bounds" transform="matrix(1,0,0,1,-0.24049999999999727,-0.02608878850033136)"><svg viewBox="0 0 95.481 86.05217757700068" height="86.05217757700068" width="95.481"><g><svg viewBox="0 0 95.481 86.05217757700068" height="86.05217757700068" width="95.481"><g><svg viewBox="0 0 95.481 86.05217757700068" height="86.05217757700068" width="95.481"><g id="textblocktransform"><svg viewBox="0 0 95.481 86.05217757700068" height="86.05217757700068" width="95.481" id="textblock"><g><svg viewBox="0 0 95.481 86.05217757700068" height="86.05217757700068" width="95.481"><g><svg viewBox="0 0 95.481 86.05217757700068" height="86.05217757700068" width="95.481"><g><svg xmlns="http://www.w3.org/2000/svg" xmlns:xlink="http://www.w3.org/1999/xlink" version="1.1" x="0" y="0" viewBox="5.003250000000008 8.908 90.31575000000001 81.397" enable-background="new 0 0 100 100" xml:space="preserve" height="86.05217757700068" width="95.481" class="icon-icon-0" data-fill-palette-color="accent" id="icon-0"><path d="M54.621 8.908c-1.974 0-3.575 1.602-3.575 3.578 0 1.976 1.602 3.578 3.575 3.578 18.493 0 33.54 15.047 33.54 33.543 0 18.495-15.047 33.542-33.54 33.542-16.971 0-31.03-12.676-33.23-29.056l2.504 2.505c0.699 0.699 1.614 1.047 2.53 1.047 0.916 0 1.831-0.348 2.53-1.047 1.397-1.398 1.397-3.663 0-5.061l-8.922-8.922c-1.397-1.397-3.663-1.397-5.06 0l-8.922 8.922c-1.397 1.397-1.397 3.662 0 5.061 1.397 1.396 3.663 1.396 5.061 0l3.012-3.012c2.007 20.579 19.403 36.719 40.498 36.719 22.439 0 40.697-18.258 40.697-40.698C95.318 27.166 77.061 8.908 54.621 8.908z" fill="#ffffff" data-fill-palette-color="accent"></path><circle cx="69.431" cy="29.083" r="3.4" fill="#ffffff" data-fill-palette-color="accent"></circle><circle cx="76.173" cy="48.166" r="3.4" fill="#ffffff" data-fill-palette-color="accent"></circle><circle cx="69.431" cy="66.708" r="3.4" fill="#ffffff" data-fill-palette-color="accent"></circle><circle cx="54.105" cy="76.822" r="3.4" fill="#ffffff" data-fill-palette-color="accent"></circle><path d="M41.141 69.414c-0.971 0-1.941-0.369-2.682-1.11-1.481-1.481-1.482-3.883-0.001-5.364l11.856-11.86V27.108c0-2.095 1.698-3.793 3.791-3.793 2.094 0 3.79 1.698 3.79 3.793v25.541c0 1.006-0.398 1.97-1.109 2.682L43.823 68.303C43.083 69.043 42.112 69.414 41.141 69.414z" fill="#ffffff" data-fill-palette-color="accent"></path></svg></g></svg></g></svg></g></svg></g></svg></g></svg></g><defs></defs></svg><rect width="95.481" height="86.05217757700068" fill="none" stroke="none" visibility="hidden"></rect></g></svg></g></svg>